<?xml version="1.0" encoding="iso-8859-1"?>
<!-- Generator: Adobe Illustrator 19.0.0, SVG Export Plug-In . SVG Version: 6.00 Build 0)  -->
<svg version="1.1" id="Capa_1" xmlns="http://www.w3.org/2000/svg" xmlns:xlink="http://www.w3.org/1999/xlink" x="0px" y="0px"
	 viewBox="0 0 512 512" style="enable-background:new 0 0 512 512;" xml:space="preserve">
<g>
	<g>
		<path d="M341.333,490.667H170.667c-5.888,0-10.667,4.779-10.667,10.667c0,5.888,4.779,10.667,10.667,10.667h170.667
			c5.888,0,10.667-4.779,10.667-10.667C352,495.445,347.221,490.667,341.333,490.667z"/>
	</g>
</g>
<g>
	<g>
		<path d="M277.333,0h-42.667C193.493,0,160,33.493,160,74.667V288c0,41.173,33.493,74.667,74.667,74.667h42.667
			C318.507,362.667,352,329.173,352,288V74.667C352,33.493,318.507,0,277.333,0z M330.667,288c0,29.397-23.936,53.333-53.333,53.333
			h-42.667c-29.397,0-53.333-23.936-53.333-53.333V74.667c0-29.397,23.936-53.333,53.333-53.333h42.667
			c29.397,0,53.333,23.936,53.333,53.333V288z"/>
	</g>
</g>
<g>
	<g>
		<path d="M384,192c-5.888,0-10.667,4.779-10.667,10.667v106.667c0,41.173-33.493,74.667-74.667,74.667h-85.333
			c-41.173,0-74.667-33.493-74.667-74.667V202.667c0-5.888-4.779-10.667-10.667-10.667s-10.667,4.779-10.667,10.667v106.667
			c0,52.928,43.072,96,96,96h85.333c52.928,0,96-43.072,96-96V202.667C394.667,196.779,389.888,192,384,192z"/>
	</g>
</g>
<g>
	<g>
		<path d="M256,384c-5.888,0-10.667,4.779-10.667,10.667v106.667c0,5.888,4.779,10.667,10.667,10.667s10.667-4.779,10.667-10.667
			V394.667C266.667,388.779,261.888,384,256,384z"/>
	</g>
</g>
<g>
	<g>
		<path d="M341.333,169.131H170.667c-5.888,0-10.667,4.779-10.667,10.667s4.779,10.667,10.667,10.667h170.667
			c5.888,0,10.667-4.779,10.667-10.667S347.221,169.131,341.333,169.131z"/>
	</g>
</g>
<g>
</g>
<g>
</g>
<g>
</g>
<g>
</g>
<g>
</g>
<g>
</g>
<g>
</g>
<g>
</g>
<g>
</g>
<g>
</g>
<g>
</g>
<g>
</g>
<g>
</g>
<g>
</g>
<g>
</g>
</svg>
